<svg width="64" height="64" viewBox="0 0 64 64" fill="none" xmlns="http://www.w3.org/2000/svg">
<path d="M42.666 10.667H47.9993C49.4138 10.667 50.7704 11.2289 51.7706 12.2291C52.7708 13.2293 53.3327 14.5858 53.3327 16.0003V53.3337C53.3327 54.7481 52.7708 56.1047 51.7706 57.1049C50.7704 58.1051 49.4138 58.667 47.9993 58.667H15.9993C14.5849 58.667 13.2283 58.1051 12.2281 57.1049C11.2279 56.1047 10.666 54.7481 10.666 53.3337V16.0003C10.666 14.5858 11.2279 13.2293 12.2281 12.2291C13.2283 11.2289 14.5849 10.667 15.9993 10.667H21.3327" stroke="white" stroke-width="4" stroke-linecap="round" stroke-linejoin="round"/>
<path d="M40.0007 5.33301H24.0007C22.5279 5.33301 21.334 6.52691 21.334 7.99967V13.333C21.334 14.8058 22.5279 15.9997 24.0007 15.9997H40.0007C41.4734 15.9997 42.6673 14.8058 42.6673 13.333V7.99967C42.6673 6.52691 41.4734 5.33301 40.0007 5.33301Z" stroke="white" stroke-width="4" stroke-linecap="round" stroke-linejoin="round"/>
</svg>
