<svg width="24" height="24" viewBox="0 0 24 24" fill="none" xmlns="http://www.w3.org/2000/svg">
<path d="M2 12.0602C2.00116 17.0099 5.5784 21.2243 10.437 22V14.968H7.9V12.0602H10.44V9.84664C10.3265 8.79776 10.6825 7.75242 11.4116 6.99411C12.1408 6.23581 13.1674 5.84315 14.213 5.92263C14.9635 5.93482 15.7122 6.00208 16.453 6.12386V8.598H15.189C14.7538 8.54065 14.3164 8.68525 13.9998 8.99107C13.6832 9.29688 13.5218 9.73081 13.561 10.1706V12.0602H16.332L15.889 14.969H13.561V22C18.8155 21.1645 22.5001 16.3361 21.9455 11.0128C21.3909 5.68957 16.7913 1.73493 11.4788 2.01389C6.16636 2.29285 2.00084 6.70774 2 12.0602Z" fill="#2C2727"/>
</svg>
