<svg width="96" height="96" viewBox="0 0 96 96" fill="none" xmlns="http://www.w3.org/2000/svg">
<rect width="96" height="96" fill="#E5E5E5"/>
<rect width="857" height="810" transform="translate(-84 -260)" fill="white"/>
<path d="M47.9999 95.9804H0.0195312V48C0.0195312 21.5004 21.5004 0.0195923 47.9999 0.0195923C74.4995 0.0195923 95.9804 21.5004 95.9804 48C95.9804 74.4996 74.4995 95.9804 47.9999 95.9804Z" fill="white"/>
<path d="M21.7356 38.3788H25.058V27.0041H32.0491V38.3788H35.3438V24.1861H21.7356V38.3788Z" fill="#2C2727"/>
<path d="M46.1617 24.0261C41.8025 24.0261 38.6123 27.0302 38.6123 31.2816C38.6123 35.5331 41.8025 38.5649 46.1617 38.5649C50.5699 38.5649 53.7356 35.5347 53.7356 31.2816C53.7356 27.0286 50.5731 24.0261 46.1617 24.0261ZM46.1617 35.7208C43.7699 35.7208 41.9625 33.9935 41.9625 31.2816C41.9625 28.5698 43.7699 26.8441 46.1617 26.8441C48.5797 26.8441 50.387 28.5714 50.387 31.2816C50.387 33.9918 48.5797 35.7208 46.1617 35.7208Z" fill="#2C2727"/>
<path d="M29.3372 43.0106C24.7936 43.0106 21.7356 45.9608 21.7356 50.32V62.5192H25.0858V55.662C26.1748 56.8849 27.7438 57.5494 29.7095 57.5494C33.8825 57.5494 36.7005 54.6253 36.7005 50.2939C36.7005 45.8776 33.7764 43.0106 29.3372 43.0106ZM29.205 54.7314C26.707 54.7314 25.0319 52.9241 25.0319 50.2661C25.0319 47.6082 26.707 45.8286 29.205 45.8286C31.7029 45.8286 33.4042 47.662 33.4042 50.2939C33.4042 52.9257 31.6736 54.7314 29.205 54.7314Z" fill="#2C2727"/>
<path d="M50.5191 44.898C49.3762 43.6229 47.7828 43.0106 45.9754 43.0106C41.8285 43.0106 38.7917 45.8547 38.7917 50.2661C38.7917 54.6776 41.822 57.5494 45.9754 57.5494C47.915 57.5494 49.5673 56.8849 50.6791 55.5298V57.3633H53.8415V43.1706H50.5191V44.898ZM46.3477 54.7053C43.9558 54.7053 42.1468 52.978 42.1468 50.2661C42.1468 47.5543 43.9558 45.8286 46.3477 45.8286C48.7656 45.8286 50.573 47.5559 50.573 50.2661C50.573 52.9763 48.7656 54.7053 46.3477 54.7053V54.7053Z" fill="#2C2727"/>
<path d="M69.071 43.1706V45.0612C67.902 43.6522 66.1486 43.0139 64.1551 43.0139C60.0882 43.0139 56.9714 45.7257 56.9714 49.8449C56.9714 53.9641 60.0735 56.7281 64.1551 56.7281C66.0686 56.7281 67.7469 56.1175 68.9126 54.8408V55.5853C68.9126 58.4555 67.5298 59.8922 64.3935 59.8922C62.4343 59.8922 60.4065 59.2261 59.1576 58.191L57.6686 60.689C59.2898 62.0179 61.9135 62.7086 64.5796 62.7086C69.5494 62.7086 72.2335 60.369 72.2335 55.213V43.1706H69.071ZM64.6629 53.9086C62.1371 53.9086 60.3298 52.2596 60.3298 49.8416C60.3298 47.4498 62.1371 45.8286 64.6629 45.8286C67.1608 45.8286 68.9682 47.4498 68.9682 49.8416C68.9649 52.2596 67.1575 53.9086 64.6531 53.9086H64.6629Z" fill="#2C2727"/>
<path d="M32.2074 71.7192H25.058V65.951H21.7356V80.1437H25.058V74.5355H32.2074V80.1437H35.5299V65.951H32.2074V71.7192Z" fill="#2C2727"/>
<path d="M45.471 65.9592C41.5102 65.9592 38.9845 67.7404 38.9845 71.0628C38.9845 73.2424 40.1273 74.7314 42.1485 75.422L38.7983 80.1567H42.3608L45.2571 75.8792H49.0041V80.1567H51.982V65.9592H45.471ZM49.0041 73.5608H45.471C43.4237 73.5608 42.3608 72.8163 42.3608 71.169C42.3608 69.4677 43.5298 68.751 45.5771 68.751H49.0057L49.0041 73.5608Z" fill="#2C2727"/>
<path d="M69.3338 66.0115V68.2057C69.3338 69.9086 68.1158 71.3617 66.4179 71.907V65.9902H63.4579V71.907C61.7599 71.3617 60.542 69.9086 60.542 68.2057V66.0115H57.5803V68.2057C57.5803 71.4711 60.1077 74.2139 63.4579 74.8457V80.2335H66.4179V74.8457C69.7664 74.2139 72.2954 71.4776 72.2954 68.2057V66.0115H69.3338Z" fill="#E6B751"/>
<rect x="-19.5" y="-19.5" width="135" height="295" rx="4.5" stroke="#7B61FF" stroke-dasharray="10 5"/>
</svg>
