<svg width="104" height="104" viewBox="0 0 104 104" fill="none" xmlns="http://www.w3.org/2000/svg">
<g filter="url(#filter0_d_77_65)">
<path d="M51.9999 95.9804H4.01953V48C4.01953 21.5004 25.5004 0.0195923 51.9999 0.0195923C78.4995 0.0195923 99.9804 21.5004 99.9804 48C99.9804 74.4996 78.4995 95.9804 51.9999 95.9804Z" fill="white"/>
<path d="M25.7356 38.3788H29.058V27.0041H36.0491V38.3788H39.3438V24.1861H25.7356V38.3788Z" fill="#2C2727"/>
<path d="M50.1617 24.0261C45.8025 24.0261 42.6123 27.0302 42.6123 31.2816C42.6123 35.5331 45.8025 38.5649 50.1617 38.5649C54.5699 38.5649 57.7356 35.5347 57.7356 31.2816C57.7356 27.0286 54.5731 24.0261 50.1617 24.0261ZM50.1617 35.7208C47.7699 35.7208 45.9625 33.9935 45.9625 31.2816C45.9625 28.5698 47.7699 26.8441 50.1617 26.8441C52.5797 26.8441 54.387 28.5714 54.387 31.2816C54.387 33.9918 52.5797 35.7208 50.1617 35.7208Z" fill="#2C2727"/>
<path d="M33.3372 43.0106C28.7936 43.0106 25.7356 45.9608 25.7356 50.32V62.5192H29.0858V55.662C30.1748 56.8849 31.7438 57.5494 33.7095 57.5494C37.8825 57.5494 40.7005 54.6253 40.7005 50.2939C40.7005 45.8776 37.7764 43.0106 33.3372 43.0106ZM33.205 54.7314C30.707 54.7314 29.0319 52.9241 29.0319 50.2661C29.0319 47.6082 30.707 45.8286 33.205 45.8286C35.7029 45.8286 37.4042 47.662 37.4042 50.2939C37.4042 52.9257 35.6736 54.7314 33.205 54.7314Z" fill="#2C2727"/>
<path d="M54.5191 44.898C53.3762 43.6229 51.7828 43.0106 49.9754 43.0106C45.8285 43.0106 42.7917 45.8547 42.7917 50.2661C42.7917 54.6776 45.822 57.5494 49.9754 57.5494C51.915 57.5494 53.5673 56.8849 54.6791 55.5298V57.3633H57.8415V43.1706H54.5191V44.898ZM50.3477 54.7053C47.9558 54.7053 46.1468 52.978 46.1468 50.2661C46.1468 47.5543 47.9558 45.8286 50.3477 45.8286C52.7656 45.8286 54.573 47.5559 54.573 50.2661C54.573 52.9763 52.7656 54.7053 50.3477 54.7053Z" fill="#2C2727"/>
<path d="M73.071 43.1706V45.0612C71.902 43.6522 70.1486 43.0139 68.1551 43.0139C64.0882 43.0139 60.9714 45.7257 60.9714 49.8449C60.9714 53.9641 64.0735 56.7281 68.1551 56.7281C70.0686 56.7281 71.7469 56.1175 72.9126 54.8408V55.5853C72.9126 58.4555 71.5298 59.8922 68.3935 59.8922C66.4343 59.8922 64.4065 59.2261 63.1576 58.191L61.6686 60.689C63.2898 62.0179 65.9135 62.7086 68.5796 62.7086C73.5494 62.7086 76.2335 60.369 76.2335 55.213V43.1706H73.071ZM68.6629 53.9086C66.1371 53.9086 64.3298 52.2596 64.3298 49.8416C64.3298 47.4498 66.1371 45.8286 68.6629 45.8286C71.1608 45.8286 72.9682 47.4498 72.9682 49.8416C72.9649 52.2596 71.1575 53.9086 68.6531 53.9086H68.6629Z" fill="#2C2727"/>
<path d="M36.2074 71.7192H29.058V65.951H25.7356V80.1437H29.058V74.5355H36.2074V80.1437H39.5299V65.951H36.2074V71.7192Z" fill="#2C2727"/>
<path d="M49.471 65.9592C45.5102 65.9592 42.9845 67.7404 42.9845 71.0628C42.9845 73.2424 44.1273 74.7314 46.1485 75.422L42.7983 80.1567H46.3608L49.2571 75.8792H53.0041V80.1567H55.982V65.9592H49.471ZM53.0041 73.5608H49.471C47.4237 73.5608 46.3608 72.8163 46.3608 71.169C46.3608 69.4677 47.5298 68.751 49.5771 68.751H53.0057L53.0041 73.5608Z" fill="#2C2727"/>
<path d="M73.3338 66.0115V68.2057C73.3338 69.9086 72.1158 71.3617 70.4179 71.907V65.9902H67.4579V71.907C65.7599 71.3617 64.542 69.9086 64.542 68.2057V66.0115H61.5803V68.2057C61.5803 71.4711 64.1077 74.2139 67.4579 74.8457V80.2335H70.4179V74.8457C73.7664 74.2139 76.2954 71.4776 76.2954 68.2057V66.0115H73.3338Z" fill="#E6B751"/>
</g>
<defs>
<filter id="filter0_d_77_65" x="0" y="0" width="104" height="104" filterUnits="userSpaceOnUse" color-interpolation-filters="sRGB">
<feFlood flood-opacity="0" result="BackgroundImageFix"/>
<feColorMatrix in="SourceAlpha" type="matrix" values="0 0 0 0 0 0 0 0 0 0 0 0 0 0 0 0 0 0 127 0" result="hardAlpha"/>
<feOffset dy="4"/>
<feGaussianBlur stdDeviation="2"/>
<feComposite in2="hardAlpha" operator="out"/>
<feColorMatrix type="matrix" values="0 0 0 0 0 0 0 0 0 0 0 0 0 0 0 0 0 0 0.25 0"/>
<feBlend mode="normal" in2="BackgroundImageFix" result="effect1_dropShadow_77_65"/>
<feBlend mode="normal" in="SourceGraphic" in2="effect1_dropShadow_77_65" result="shape"/>
</filter>
</defs>
</svg>
