<svg width="96" height="96" viewBox="0 0 96 96" fill="none" xmlns="http://www.w3.org/2000/svg">
<path d="M47.9999 95.9803H0.0195312V47.9999C0.0195312 21.5003 21.5003 0.0195312 47.9999 0.0195312C74.4995 0.0195312 95.9803 21.5003 95.9803 47.9999C95.9803 74.4995 74.4995 95.9803 47.9999 95.9803Z" fill="#E6B751"/>
<path d="M21.7363 38.3787H25.0588V27.004H32.0498V38.3787H35.3445V24.186H21.7363V38.3787Z" fill="#2C2727"/>
<path d="M46.1607 24.0264C41.8015 24.0264 38.6113 27.0304 38.6113 31.2819C38.6113 35.5333 41.8015 38.5651 46.1607 38.5651C50.5689 38.5651 53.7346 35.5349 53.7346 31.2819C53.7346 27.0288 50.5721 24.0264 46.1607 24.0264ZM46.1607 35.7211C43.7689 35.7211 41.9615 33.9937 41.9615 31.2819C41.9615 28.57 43.7689 26.8443 46.1607 26.8443C48.5787 26.8443 50.386 28.5717 50.386 31.2819C50.386 33.9921 48.5787 35.7211 46.1607 35.7211Z" fill="#2C2727"/>
<path d="M29.338 43.0107C24.7943 43.0107 21.7363 45.9609 21.7363 50.3201V62.5193H25.0865V55.6622C26.1755 56.885 27.7445 57.5495 29.7102 57.5495C33.8833 57.5495 36.7012 54.6254 36.7012 50.294C36.7012 45.8777 33.7771 43.0107 29.338 43.0107ZM29.2057 54.7316C26.7078 54.7316 25.0327 52.9242 25.0327 50.2663C25.0327 47.6083 26.7078 45.8287 29.2057 45.8287C31.7037 45.8287 33.4049 47.6622 33.4049 50.294C33.4049 52.9258 31.6743 54.7316 29.2057 54.7316Z" fill="#2C2727"/>
<path d="M50.5184 44.8981C49.3755 43.623 47.782 43.0107 45.9747 43.0107C41.8277 43.0107 38.791 45.8548 38.791 50.2663C38.791 54.6777 41.8212 57.5495 45.9747 57.5495C47.9143 57.5495 49.5665 56.885 50.6784 55.5299V57.3634H53.8408V43.1707H50.5184V44.8981ZM46.3469 54.7054C43.9551 54.7054 42.1461 52.9781 42.1461 50.2663C42.1461 47.5544 43.9551 45.8287 46.3469 45.8287C48.7649 45.8287 50.5722 47.556 50.5722 50.2663C50.5722 52.9765 48.7649 54.7054 46.3469 54.7054Z" fill="#2C2727"/>
<path d="M69.0703 43.1704V45.061C67.9013 43.652 66.1478 43.0137 64.1544 43.0137C60.0874 43.0137 56.9707 45.7255 56.9707 49.8447C56.9707 53.9639 60.0727 56.728 64.1544 56.728C66.0678 56.728 67.7462 56.1174 68.9119 54.8406V55.5851C68.9119 58.4553 67.529 59.892 64.3927 59.892C62.4335 59.892 60.4058 59.2259 59.1568 58.1908L57.6678 60.6888C59.2891 62.0178 61.9127 62.7084 64.5789 62.7084C69.5486 62.7084 72.2327 60.3688 72.2327 55.2129V43.1704H69.0703ZM64.6621 53.9084C62.1364 53.9084 60.3291 52.2594 60.3291 49.8414C60.3291 47.4496 62.1364 45.8284 64.6621 45.8284C67.1601 45.8284 68.9674 47.4496 68.9674 49.8414C68.9642 52.2594 67.1568 53.9084 64.6523 53.9084H64.6621Z" fill="#2C2727"/>
<path d="M32.2082 71.7193H25.0588V65.9512H21.7363V80.1438H25.0588V74.5357H32.2082V80.1438H35.5306V65.9512H32.2082V71.7193Z" fill="#2C2727"/>
<path d="M45.4715 65.959C41.5107 65.959 38.9849 67.7402 38.9849 71.0627C38.9849 73.2423 40.1278 74.7312 42.149 75.4218L38.7988 80.1565H42.3613L45.2576 75.879H49.0046V80.1565H51.9825V65.959H45.4715ZM49.0046 73.5606H45.4715C43.4241 73.5606 42.3613 72.8161 42.3613 71.1688C42.3613 69.4676 43.5303 68.7508 45.5776 68.7508H49.0062L49.0046 73.5606Z" fill="#2C2727"/>
<path d="M69.3335 66.0115V68.2057C69.3335 69.9086 68.1156 71.3617 66.4176 71.907V65.9902H63.4576V71.907C61.7597 71.3617 60.5417 69.9086 60.5417 68.2057V66.0115H57.5801V68.2057C57.5801 71.4711 60.1074 74.2139 63.4576 74.8457V80.2335H66.4176V74.8457C69.7662 74.2139 72.2952 71.4776 72.2952 68.2057V66.0115H69.3335Z" fill="white"/>
</svg>
