<svg width="97" height="77" viewBox="0 0 97 77" fill="none" xmlns="http://www.w3.org/2000/svg">
<path d="M31.976 36.408C35.7093 38.0507 38.6213 40.5147 40.712 43.8C42.8027 47.0853 43.848 50.968 43.848 55.448C43.848 61.8693 41.832 67.096 37.8 71.128C33.768 75.0107 28.616 76.952 22.344 76.952C16.072 76.952 10.8453 74.936 6.664 70.904C2.632 66.872 0.616 61.72 0.616 55.448C0.616 52.4613 0.989334 49.4747 1.736 46.488C2.48267 43.5013 4.12533 39.0213 6.664 33.048L19.656 0.79199H41.832L31.976 36.408ZM84.84 36.408C88.5733 38.0507 91.4853 40.5147 93.576 43.8C95.6667 47.0853 96.712 50.968 96.712 55.448C96.712 61.8693 94.696 67.096 90.664 71.128C86.632 75.0107 81.48 76.952 75.208 76.952C68.936 76.952 63.7093 74.936 59.528 70.904C55.496 66.872 53.48 61.72 53.48 55.448C53.48 52.4613 53.8533 49.4747 54.6 46.488C55.3467 43.5013 56.9893 39.0213 59.528 33.048L72.52 0.79199H94.696L84.84 36.408Z" fill="#E6B751"/>
</svg>
